<svg  viewBox="0 0 30 30" fill="none" xmlns="http://www.w3.org/2000/svg">
<path d="M14.6734 10.1644C14.6268 10.1199 14.5649 10.0951 14.5006 10.0951C14.4362 10.0951 14.3743 10.1199 14.3277 10.1644L8.57464 15.6603C8.55021 15.6837 8.53077 15.7118 8.5175 15.7429C8.50423 15.774 8.49741 15.8075 8.49745 15.8413L8.49651 20.9994C8.49651 21.2646 8.60187 21.5189 8.78941 21.7065C8.97694 21.894 9.2313 21.9994 9.49651 21.9994H12.4996C12.6322 21.9994 12.7594 21.9467 12.8532 21.8529C12.9469 21.7592 12.9996 21.632 12.9996 21.4994V17.2494C12.9996 17.1831 13.026 17.1195 13.0729 17.0726C13.1197 17.0257 13.1833 16.9994 13.2496 16.9994H15.7496C15.8159 16.9994 15.8795 17.0257 15.9264 17.0726C15.9733 17.1195 15.9996 17.1831 15.9996 17.2494V21.4994C15.9996 21.632 16.0523 21.7592 16.1461 21.8529C16.2398 21.9467 16.367 21.9994 16.4996 21.9994H19.5015C19.7667 21.9994 20.0211 21.894 20.2086 21.7065C20.3961 21.5189 20.5015 21.2646 20.5015 20.9994V15.8413C20.5015 15.8075 20.4947 15.774 20.4814 15.7429C20.4682 15.7118 20.4487 15.6837 20.4243 15.6603L14.6734 10.1644Z" />
<path d="M21.8409 14.6297L19.5034 12.3934V9C19.5034 8.86739 19.4507 8.74021 19.357 8.64645C19.2632 8.55268 19.136 8.5 19.0034 8.5H17.5034C17.3708 8.5 17.2436 8.55268 17.1499 8.64645C17.0561 8.74021 17.0034 8.86739 17.0034 9V10L15.1934 8.26937C15.0241 8.09812 14.7722 8 14.5 8C14.2287 8 13.9775 8.09812 13.8081 8.26969L7.16126 14.629C6.96689 14.8165 6.94251 15.125 7.11939 15.3281C7.1638 15.3794 7.21819 15.4211 7.27923 15.4507C7.34027 15.4802 7.4067 15.4971 7.47446 15.5002C7.54222 15.5033 7.60991 15.4926 7.6734 15.4687C7.73689 15.4448 7.79485 15.4082 7.84376 15.3612L14.3281 9.165C14.3746 9.12049 14.4365 9.09565 14.5009 9.09565C14.5653 9.09565 14.6272 9.12049 14.6737 9.165L21.1587 15.3612C21.2543 15.4528 21.3822 15.5028 21.5145 15.5003C21.6469 15.4977 21.7728 15.4427 21.8647 15.3475C22.0565 15.1487 22.0406 14.8206 21.8409 14.6297Z" />
</svg>
