<svg  viewBox="0 0 30 30" fill="none" xmlns="http://www.w3.org/2000/svg">
<path fill-rule="evenodd" clip-rule="evenodd" d="M10.2143 11.0714C10.2143 10.4797 10.694 10 11.2857 10H20.9286C21.5203 10 22 10.4797 22 11.0714C22 11.6632 21.5203 12.1429 20.9286 12.1429H11.2857C10.694 12.1429 10.2143 11.6632 10.2143 11.0714Z" />
<path fill-rule="evenodd" clip-rule="evenodd" d="M10.2143 15.3571C10.2143 14.7654 10.694 14.2857 11.2857 14.2857H20.9286C21.5203 14.2857 22 14.7654 22 15.3571C22 15.9489 21.5203 16.4286 20.9286 16.4286H11.2857C10.694 16.4286 10.2143 15.9489 10.2143 15.3571Z" />
<path fill-rule="evenodd" clip-rule="evenodd" d="M10.2143 19.6429C10.2143 19.0511 10.694 18.5714 11.2857 18.5714H20.9286C21.5203 18.5714 22 19.0511 22 19.6429C22 20.2346 21.5203 20.7143 20.9286 20.7143H11.2857C10.694 20.7143 10.2143 20.2346 10.2143 19.6429Z" />
<path d="M9.14286 11.0714C9.14286 11.6632 8.66316 12.1429 8.07143 12.1429C7.47969 12.1429 7 11.6632 7 11.0714C7 10.4797 7.47969 10 8.07143 10C8.66316 10 9.14286 10.4797 9.14286 11.0714Z" />
<path d="M9.14286 15.3571C9.14286 15.9489 8.66316 16.4286 8.07143 16.4286C7.47969 16.4286 7 15.9489 7 15.3571C7 14.7654 7.47969 14.2857 8.07143 14.2857C8.66316 14.2857 9.14286 14.7654 9.14286 15.3571Z" />
<path d="M9.14286 19.6429C9.14286 20.2346 8.66316 20.7143 8.07143 20.7143C7.47969 20.7143 7 20.2346 7 19.6429C7 19.0511 7.47969 18.5714 8.07143 18.5714C8.66316 18.5714 9.14286 19.0511 9.14286 19.6429Z" />
</svg>
